<svg xmlns="http://www.w3.org/2000/svg" xmlns:xlink="http://www.w3.org/1999/xlink" width="110px" height="100px"><path fill-rule="evenodd"  fill="#bcbcbc" d="M108.645,25.106 C107.493,25.236 104.822,25.520 101.846,25.715 C101.291,27.452 100.420,29.046 99.301,30.433 C100.770,32.974 101.998,35.311 102.535,36.349 C102.722,36.710 102.573,37.069 102.573,37.069 L95.284,41.557 C95.284,41.557 94.903,41.538 94.676,41.223 C93.995,40.283 92.431,38.092 90.795,35.593 C89.867,35.777 88.909,35.876 87.927,35.876 C87.088,35.876 86.267,35.801 85.467,35.665 C83.968,38.212 82.525,40.450 81.882,41.433 C81.659,41.773 81.274,41.820 81.274,41.820 L73.780,37.682 C73.780,37.682 73.610,37.341 73.772,36.988 C74.262,35.920 75.421,33.435 76.814,30.745 C75.686,29.425 74.788,27.903 74.185,26.238 C71.189,26.188 68.482,26.029 67.297,25.952 C66.891,25.925 66.660,25.613 66.660,25.613 L66.577,17.053 C66.577,17.053 66.791,16.737 67.178,16.705 C68.358,16.605 71.129,16.389 74.188,16.280 C74.783,14.640 75.665,13.139 76.770,11.832 C75.328,9.178 74.121,6.716 73.601,5.638 C73.425,5.272 73.583,4.917 73.583,4.917 L80.996,0.635 C80.996,0.635 81.375,0.666 81.594,0.986 C82.261,1.964 83.809,4.267 85.407,6.873 C86.226,6.730 87.067,6.652 87.927,6.652 C88.553,6.652 89.168,6.696 89.773,6.772 C91.220,4.141 92.629,1.815 93.253,0.801 C93.466,0.454 93.850,0.396 93.850,0.396 L101.457,4.323 C101.457,4.323 101.636,4.659 101.484,5.016 C101.026,6.094 99.942,8.600 98.629,11.320 C99.828,12.609 100.795,14.115 101.468,15.772 C104.426,15.741 107.092,15.822 108.267,15.866 C108.673,15.881 108.913,16.187 108.913,16.187 L109.235,24.741 C109.235,24.741 109.031,25.063 108.645,25.106 ZM87.927,13.915 C83.868,13.915 80.578,17.205 80.578,21.264 C80.578,25.323 83.868,28.613 87.927,28.613 C91.986,28.613 95.276,25.323 95.276,21.264 C95.276,17.205 91.986,13.915 87.927,13.915 ZM66.882,29.385 C66.139,30.678 64.313,33.635 61.581,36.672 C62.411,38.225 63.098,39.866 63.624,41.578 C67.755,41.769 71.119,42.467 72.552,42.806 C73.035,42.921 73.301,43.585 73.301,43.585 L73.353,55.540 C73.353,55.540 73.091,56.215 72.608,56.347 C71.162,56.741 67.759,57.555 63.656,57.775 C63.142,59.474 62.469,61.103 61.656,62.647 C64.470,65.712 66.377,68.601 67.156,69.858 C67.418,70.280 67.138,70.939 67.138,70.939 L58.740,79.448 C58.740,79.448 58.077,79.741 57.642,79.494 C56.335,78.750 53.334,76.915 50.260,74.161 C48.733,74.985 47.120,75.671 45.438,76.201 C45.272,80.373 44.582,83.777 44.246,85.222 C44.133,85.705 43.470,85.975 43.470,85.975 L31.515,86.079 C31.515,86.079 30.839,85.820 30.706,85.338 C30.304,83.888 29.471,80.470 29.236,76.348 C27.543,75.849 25.916,75.194 24.375,74.397 C21.316,77.233 18.427,79.158 17.170,79.945 C16.750,80.208 16.090,79.931 16.090,79.931 L7.544,71.570 C7.544,71.570 7.248,70.909 7.494,70.473 C8.229,69.167 10.043,66.171 12.771,63.094 C11.928,61.563 11.226,59.943 10.681,58.253 C6.532,58.101 3.147,57.430 1.707,57.102 C1.223,56.991 0.951,56.329 0.951,56.329 L0.794,44.375 C0.794,44.375 1.050,43.698 1.532,43.562 C2.969,43.157 6.342,42.319 10.421,42.059 C10.916,40.334 11.573,38.678 12.376,37.109 C9.564,34.090 7.651,31.246 6.866,30.003 C6.601,29.584 6.875,28.923 6.875,28.923 L15.198,20.341 C15.198,20.341 15.858,20.042 16.295,20.285 C17.594,21.010 20.561,22.788 23.624,25.467 C25.314,24.527 27.112,23.758 28.996,23.184 C29.208,19.078 29.916,15.741 30.260,14.315 C30.377,13.833 31.042,13.569 31.042,13.569 L42.997,13.569 C42.997,13.569 43.671,13.835 43.801,14.318 C44.185,15.755 44.975,19.120 45.185,23.182 C46.910,23.707 48.564,24.396 50.128,25.230 C53.177,22.467 56.038,20.597 57.288,19.829 C57.711,19.569 58.369,19.852 58.369,19.852 L66.841,28.287 C66.841,28.287 67.131,28.951 66.882,29.385 ZM37.094,35.318 C29.134,35.318 22.681,41.770 22.681,49.730 C22.681,57.690 29.134,64.143 37.094,64.143 C45.054,64.143 51.506,57.690 51.506,49.730 C51.506,41.770 45.054,35.318 37.094,35.318 ZM67.178,74.896 C68.358,74.796 71.129,74.580 74.188,74.471 C74.783,72.831 75.665,71.330 76.770,70.024 C75.328,67.369 74.121,64.908 73.601,63.829 C73.425,63.463 73.583,63.109 73.583,63.109 L80.996,58.826 C80.996,58.826 81.375,58.857 81.594,59.177 C82.261,60.155 83.809,62.458 85.407,65.064 C86.226,64.922 87.067,64.843 87.927,64.843 C88.553,64.843 89.168,64.887 89.773,64.963 C91.220,62.332 92.629,60.006 93.253,58.992 C93.466,58.645 93.850,58.587 93.850,58.587 L101.457,62.514 C101.457,62.514 101.636,62.850 101.484,63.207 C101.026,64.286 99.942,66.791 98.629,69.511 C99.828,70.800 100.795,72.306 101.468,73.963 C104.426,73.933 107.092,74.014 108.267,74.057 C108.673,74.073 108.913,74.378 108.913,74.378 L109.235,82.933 C109.235,82.933 109.031,83.254 108.645,83.298 C107.493,83.428 104.822,83.712 101.846,83.906 C101.291,85.643 100.420,87.237 99.301,88.624 C100.770,91.165 101.998,93.502 102.535,94.540 C102.722,94.901 102.573,95.260 102.573,95.260 L95.284,99.749 C95.284,99.749 94.903,99.729 94.676,99.415 C93.995,98.474 92.431,96.283 90.795,93.784 C89.867,93.969 88.909,94.067 87.927,94.067 C87.088,94.067 86.267,93.992 85.467,93.857 C83.968,96.403 82.525,98.641 81.882,99.624 C81.659,99.965 81.274,100.012 81.274,100.012 L73.780,95.873 C73.780,95.873 73.610,95.532 73.772,95.179 C74.262,94.111 75.421,91.627 76.814,88.937 C75.686,87.616 74.788,86.094 74.185,84.430 C71.189,84.379 68.482,84.221 67.297,84.143 C66.891,84.117 66.660,83.804 66.660,83.804 L66.577,75.244 C66.577,75.244 66.791,74.929 67.178,74.896 ZM87.927,86.804 C91.986,86.804 95.276,83.514 95.276,79.455 C95.276,75.396 91.986,72.106 87.927,72.106 C83.868,72.106 80.578,75.396 80.578,79.455 C80.578,83.514 83.868,86.804 87.927,86.804 Z"/></svg>